<svg xmlns="http://www.w3.org/2000/svg" viewBox="0 0 200 200"><defs><style>.cls-1{fill:#fff2f2;}</style></defs><g id="レイヤー_2" data-name="レイヤー 2"><g id="レイヤー_1-2" data-name="レイヤー 1"><path class="cls-1" d="M100,10a90,90,0,1,1-90,90,90.1,90.1,0,0,1,90-90m0-10A100,100,0,1,0,200,100,100,100,0,0,0,100,0Z"/><path class="cls-1" d="M98,152.78a12.64,12.64,0,1,1,12.64-12.64A12.65,12.65,0,0,1,98,152.78Zm-7.79-36a2.93,2.93,0,0,1-2.92-2.93v-2.12c0-11.7,8.51-16.44,16-20.63l.52-.29c6.26-3.51,11.67-6.54,11.67-12.94,0-7.6-9-12.89-17-12.89-9.64,0-14.18,4.75-19.53,11.46a2.92,2.92,0,0,1-4.06.5l-9.27-7a2.92,2.92,0,0,1-.62-4l.06-.1A39.16,39.16,0,0,1,98.43,47.22c.53,0,1,0,1.58,0,16.83,0,35.56,13.17,35.57,30.8,0,14.21-9.52,19.7-17.17,24.12-5.23,3-9.75,5.62-9.75,10.39v1.25a2.92,2.92,0,0,1-2.92,2.92Z"/></g></g></svg>