<svg xmlns="http://www.w3.org/2000/svg" viewBox="0 0 200 200"><defs><style>.cls-1{fill:#fff2f2;}</style></defs><g id="レイヤー_2" data-name="レイヤー 2"><g id="レイヤー_1-2" data-name="レイヤー 1"><path class="cls-1" d="M100,10a90,90,0,1,1-90,90,90.1,90.1,0,0,1,90-90m0-10A100,100,0,1,0,200,100,100,100,0,0,0,100,0Z"/><path class="cls-1" d="M71.21,89.94A11.22,11.22,0,1,1,82.43,78.72,11.23,11.23,0,0,1,71.21,89.94Z"/><path class="cls-1" d="M71.21,88.94A10.22,10.22,0,1,1,81.43,78.72,10.22,10.22,0,0,1,71.21,88.94Z"/><path class="cls-1" d="M127.31,89.94a11.22,11.22,0,1,1,11.22-11.22A11.23,11.23,0,0,1,127.31,89.94Z"/><path class="cls-1" d="M127.31,88.94a10.22,10.22,0,1,1,10.22-10.22A10.23,10.23,0,0,1,127.31,88.94Z"/><path class="cls-1" d="M99.26,146a35.15,35.15,0,0,1-27.08-12.68A5.69,5.69,0,0,1,80.92,126a23.84,23.84,0,0,0,36.68,0,5.69,5.69,0,0,1,8.75,7.28A35.17,35.17,0,0,1,99.26,146Z"/><path class="cls-1" d="M99.26,145A34.14,34.14,0,0,1,73,132.68a4.69,4.69,0,0,1,7.21-6,24.83,24.83,0,0,0,38.21,0A4.68,4.68,0,0,1,122,125a4.63,4.63,0,0,1,3,1.08,4.69,4.69,0,0,1,.61,6.6A34.16,34.16,0,0,1,99.26,145Z"/></g></g></svg>