<svg xmlns="http://www.w3.org/2000/svg" viewBox="0 0 200 200"><defs><style>.cls-1{fill:#fff2f2;}</style></defs><g id="レイヤー_2" data-name="レイヤー 2"><g id="レイヤー_1-2" data-name="レイヤー 1"><path class="cls-1" d="M100,10a90,90,0,1,1-90,90,90.1,90.1,0,0,1,90-90m0-10A100,100,0,1,0,200,100,100,100,0,0,0,100,0Z"/><path class="cls-1" d="M122.45,55.34a3.55,3.55,0,0,0-.86.1,3.69,3.69,0,0,0-1.1.52v0l-.51.39L54.07,106.41l-26.45-4.27h0a1.58,1.58,0,0,0-.65,0c-2.6.65-2.93,8.31-.73,17.1s6.09,15.4,8.69,14.75a1.42,1.42,0,0,0,.47-.21h0L56.84,117.5l81.86,13.24.18,0h0a3.72,3.72,0,0,0,.66.08,3.56,3.56,0,0,0,.86-.11c6.15-1.53,6.93-19.64,1.74-40.43C137.18,70.46,128.57,55.34,122.45,55.34Zm17.06,66.83a1.33,1.33,0,0,1-2.36.57l-.35-.45a40.05,40.05,0,0,1-3.48-5.59,102.17,102.17,0,0,1-8.11-22.17,102.84,102.84,0,0,1-3.27-23.37,39,39,0,0,1,.54-7.13v0a1.33,1.33,0,0,1,2.35-.58,40.31,40.31,0,0,1,3.84,6.07,102.29,102.29,0,0,1,8.1,22.16A101.88,101.88,0,0,1,140,115,39.39,39.39,0,0,1,139.51,122.17Z"/><polygon class="cls-1" points="163.25 57.3 144.29 79.16 168.82 63.98 163.25 57.3"/><polygon class="cls-1" points="176.14 79.34 149.44 90.49 178.16 87.79 176.14 79.34"/><polygon class="cls-1" points="149.57 103.74 177.34 111.56 178.5 102.95 149.57 103.74"/></g></g></svg>