<svg xmlns="http://www.w3.org/2000/svg" viewBox="0 0 200 200"><defs><style>.cls-1{fill:#fff2f2;}</style></defs><g id="レイヤー_2" data-name="レイヤー 2"><g id="レイヤー_1-2" data-name="レイヤー 1"><path class="cls-1" d="M100,10a90,90,0,1,1-90,90,90.1,90.1,0,0,1,90-90m0-10A100,100,0,1,0,200,100,100,100,0,0,0,100,0Z"/><path class="cls-1" d="M56.63,142a12.21,12.21,0,0,1-12.2-12.19V72.35a12.21,12.21,0,0,1,12.2-12.2h86.74a12.21,12.21,0,0,1,12.2,12.2v57.46A12.21,12.21,0,0,1,143.37,142Zm-2.47-12.19a2.47,2.47,0,0,0,2.47,2.46h86.74a2.47,2.47,0,0,0,2.47-2.46V78.13l-39,26.86a12.22,12.22,0,0,1-13.76,0l-39-26.86ZM98.65,97a2.32,2.32,0,0,0,1.35.42,2.36,2.36,0,0,0,1.35-.41l39.31-27.1H59.34Z"/></g></g></svg>