<svg xmlns="http://www.w3.org/2000/svg" viewBox="0 0 200 200"><defs><style>.cls-1{fill:#fff2f2;}</style></defs><g id="レイヤー_2" data-name="レイヤー 2"><g id="レイヤー_1-2" data-name="レイヤー 1"><path class="cls-1" d="M100,10a90,90,0,1,1-90,90,90.1,90.1,0,0,1,90-90m0-10A100,100,0,1,0,200,100,100,100,0,0,0,100,0Z"/><path class="cls-1" d="M152.28,79.36a2.25,2.25,0,0,0-.05-.22,3.86,3.86,0,0,0-.17-.55l-.08-.21a4.32,4.32,0,0,0-.36-.67.39.39,0,0,1-.08-.1c-.1-.13-.2-.27-.31-.4L128.5,51.89a4.43,4.43,0,0,0-3.3-1.48H55.93l-.3,0-.36.05-.29.07-.35.1-.14,0-.13.07a2.41,2.41,0,0,0-.33.15,2.2,2.2,0,0,0-.26.15,2.4,2.4,0,0,0-.29.19l-.24.18a2.83,2.83,0,0,0-.25.24,2.18,2.18,0,0,0-.22.21l-.21.27c-.06.08-.13.16-.18.24a2.75,2.75,0,0,0-.17.29c-.05.1-.11.19-.15.28A.43.43,0,0,1,52,53a2.5,2.5,0,0,0-.09.25,1.66,1.66,0,0,0-.1.29,2.49,2.49,0,0,0-.09.37l-.06.27c0,.15,0,.3,0,.45s0,.12,0,.18v.06h0v67.66a4.41,4.41,0,0,0,1.13,3L75.5,150.86l.08.08c.13.13.28.26.42.38l.26.21a3.7,3.7,0,0,0,.55.31A1.55,1.55,0,0,0,77,152a3.89,3.89,0,0,0,.75.25.45.45,0,0,1,.11,0,4.46,4.46,0,0,0,.91.09h69.13a4.43,4.43,0,0,0,4.43-4.43V80.15A4.23,4.23,0,0,0,152.28,79.36ZM123.64,59.74l13,14.54a.87.87,0,0,1-.65,1.46H81.39a1.41,1.41,0,0,1-1-.46l-13-14.54A.87.87,0,0,1,68,59.28h54.64A1.41,1.41,0,0,1,123.64,59.74ZM62,68.13l11.64,13a2.68,2.68,0,0,1,.69,1.8V134a.88.88,0,0,1-1.53.58l-12-13.34a1.4,1.4,0,0,1-.35-.93V68.72A.87.87,0,0,1,62,68.13Zm80.08,75.33H84.62a1.38,1.38,0,0,1-1.39-1.38V86a1.39,1.39,0,0,1,1.39-1.39h57.49A1.38,1.38,0,0,1,143.49,86v56.08A1.38,1.38,0,0,1,142.11,143.46Z"/><path class="cls-1" d="M114.63,120.49a3.58,3.58,0,1,0,3.58,3.58A3.58,3.58,0,0,0,114.63,120.49Z"/><path class="cls-1" d="M104.52,105.69h20.22a3.17,3.17,0,1,0,0-6.33H104.52a3.17,3.17,0,1,0,0,6.33Z"/></g></g></svg>