<svg id="batsu" xmlns="http://www.w3.org/2000/svg" width="32" height="32" viewBox="0 0 32 32">
  <path id="パス_1034" data-name="パス 1034" d="M161.644,151.751,158.09,155.3l-3.553-3.553-2.787,2.787,3.553,3.553-3.553,3.553,2.787,2.787,3.553-3.553,3.553,3.553,2.787-2.787-3.553-3.553,3.553-3.553Z" transform="translate(-142.091 -142.091)" fill="#999"/>
  <path id="パス_1035" data-name="パス 1035" d="M27.313,4.687A16,16,0,1,0,32,16,15.957,15.957,0,0,0,27.313,4.687ZM24.92,24.92A12.615,12.615,0,1,1,28.615,16,12.571,12.571,0,0,1,24.92,24.92Z" transform="translate(0 0)" fill="#999"/>
</svg>
