<svg xmlns="http://www.w3.org/2000/svg" width="22.419" height="24.942" viewBox="0 0 22.419 24.942">
  <defs>
    <style>
      .cls-1 {
        fill: none;
        stroke: #666;
        stroke-linecap: round;
        stroke-linejoin: round;
        stroke-width: 1.549px;
      }
    </style>
  </defs>
  <g id="グループ_4353" data-name="グループ 4353" transform="translate(-284.3 -62.713)">
    <path id="パス_23" data-name="パス 23" class="cls-1" d="M-742.644-1031.914l-1.768.79a4.291,4.291,0,0,0-2.575,3.349l-.839,6.779a4.29,4.29,0,0,1-2.571,3.347l-.18.081a1,1,0,0,0,.479,1.911h18.644a1,1,0,0,0,.453-1.921l-.22-.092a4.3,4.3,0,0,1-2.681-3.4l-.839-6.908a4.291,4.291,0,0,0-2.581-3.359l-1.286-.574A4.986,4.986,0,0,0-742.644-1031.914Z" transform="translate(1036.287 1095.856)"/>
    <path id="パス_24" data-name="パス 24" class="cls-1" d="M-734.124-1006.255a3.6,3.6,0,0,1-3.6,3.6,3.6,3.6,0,0,1-3.6-3.6Z" transform="translate(1033.397 1089.536)"/>
    <line id="線_42" data-name="線 42" class="cls-1" x2="10.512" transform="translate(289.877 74.13)"/>
    <line id="線_43" data-name="線 43" class="cls-1" x2="13.18" transform="translate(289.021 77.587)"/>
  </g>
</svg>
