<svg id="info-circle" xmlns="http://www.w3.org/2000/svg" width="36" height="36" viewBox="0 0 36 36">
  <path id="パス_5049" data-name="パス 5049" d="M18,33.75A15.75,15.75,0,1,0,2.25,18,15.75,15.75,0,0,0,18,33.75ZM18,36A18,18,0,1,0,0,18,18,18,0,0,0,18,36Z" fill="#666" fill-rule="evenodd"/>
  <path id="パス_5050" data-name="パス 5050" d="M20.093,14.823l-5.152.646-.184.855,1.012.187c.661.158.792.4.648,1.055l-1.66,7.8c-.436,2.018.236,2.968,1.818,2.968a4.66,4.66,0,0,0,3.3-1.345l.2-.936a2.492,2.492,0,0,1-1.544.553c-.619,0-.844-.434-.684-1.2Z" fill="#666"/>
  <path id="パス_5051" data-name="パス 5051" d="M20.25,10.125A2.25,2.25,0,1,1,18,7.875,2.25,2.25,0,0,1,20.25,10.125Z" fill="#666"/>
</svg>
