<svg xmlns="http://www.w3.org/2000/svg" width="35.998" height="28.287" viewBox="0 0 35.998 28.287">
  <path id="comments-o" d="M14.143,2.571A15.636,15.636,0,0,0,8.4,3.616,10.768,10.768,0,0,0,4.148,6.449a5.709,5.709,0,0,0-1.577,3.837A5.474,5.474,0,0,0,3.636,13.46a9.246,9.246,0,0,0,2.993,2.652l1.949,1.125-.7,1.688q.683-.4,1.246-.783l.884-.623,1.065.2A17.4,17.4,0,0,0,14.144,18a15.636,15.636,0,0,0,5.746-1.045,10.768,10.768,0,0,0,4.249-2.833,5.709,5.709,0,0,0,1.577-3.837,5.709,5.709,0,0,0-1.577-3.837,10.766,10.766,0,0,0-4.251-2.833,15.646,15.646,0,0,0-5.746-1.045Zm0-2.571a18.1,18.1,0,0,1,7.1,1.376A12.744,12.744,0,0,1,26.4,5.123a8,8,0,0,1,0,10.326A12.761,12.761,0,0,1,21.244,19.2a18.081,18.081,0,0,1-7.1,1.375,20.208,20.208,0,0,1-3.536-.321,16.884,16.884,0,0,1-5.585,2.571,16.734,16.734,0,0,1-1.728.321h-.06a.628.628,0,0,1-.412-.161.664.664,0,0,1-.231-.422.412.412,0,0,1-.02-.131.8.8,0,0,1,.01-.131.437.437,0,0,1,.04-.121l.05-.1.07-.11.08-.1.09-.1.08-.09q.1-.121.462-.5a7.6,7.6,0,0,0,.522-.593q.16-.212.452-.583a4.969,4.969,0,0,0,.5-.773q.21-.4.412-.884a11.751,11.751,0,0,1-3.915-3.555A7.881,7.881,0,0,1,0,10.286,8.115,8.115,0,0,1,1.888,5.123,12.752,12.752,0,0,1,7.041,1.376,18.1,18.1,0,0,1,14.143,0ZM30.656,23.484q.2.482.412.884a5.068,5.068,0,0,0,.5.773q.291.371.452.583t.522.593q.361.381.462.5.02.02.08.09t.09.1a.851.851,0,0,1,.08.1.9.9,0,0,1,.07.11l.05.1.04.121.01.131-.02.131a.744.744,0,0,1-.261.442.606.606,0,0,1-.442.141,17.172,17.172,0,0,1-1.728-.321,16.911,16.911,0,0,1-5.585-2.571,20.208,20.208,0,0,1-3.536.321,16.878,16.878,0,0,1-9.482-2.652q1.165.08,1.768.08a21.228,21.228,0,0,0,6.208-.9,17.769,17.769,0,0,0,5.3-2.592,13.439,13.439,0,0,0,3.857-4.259,10.339,10.339,0,0,0,.884-8.157,11.889,11.889,0,0,1,4.1,3.576,7.842,7.842,0,0,1,.081,9.131A11.8,11.8,0,0,1,30.656,23.484Z" fill="#666"/>
</svg>
