<svg xmlns="http://www.w3.org/2000/svg" width="24.872" height="23" viewBox="0 0 24.872 23">
  <path id="exclamation-triangle" d="M23.559,18.907A2.065,2.065,0,0,1,21.839,22H1.987a2.065,2.065,0,0,1-1.72-3.093L10.193,1.03a1.95,1.95,0,0,1,3.44,0l9.926,17.876Zm-11.646-3.7a1.978,1.978,0,1,0,1.9,1.977A1.941,1.941,0,0,0,11.914,15.211Zm-1.807-7.1.307,5.844a.505.505,0,0,0,.5.487h2.008a.505.505,0,0,0,.5-.487l.307-5.844a.508.508,0,0,0-.5-.544H10.6a.508.508,0,0,0-.5.544Z" transform="translate(0.523 0.5)" fill="none" stroke="#e25d41" stroke-width="1"/>
</svg>
