<svg xmlns="http://www.w3.org/2000/svg" width="125.613" height="26.021" viewBox="0 0 125.613 26.021">
  <defs>
    <style>
      .cls-1 {
        fill: #333;
      }

      .cls-2 {
        fill: #f46468;
      }

      .cls-3 {
        fill: #6eb6ff;
      }
    </style>
  </defs>
  <g id="グループ_4351" data-name="グループ 4351" transform="translate(0 0)">
    <g id="グループ_4352" data-name="グループ 4352">
      <path id="パス_95" data-name="パス 95" class="cls-1" d="M216.283,19.038l-10.467-1.325a.906.906,0,0,1-.787-.876l-.1-5.407a1.121,1.121,0,0,0-1-1.092l-1.289-.136a1.148,1.148,0,0,0-.141-.006,1.119,1.119,0,0,0-1.1,1.14l.372,19.751a1.12,1.12,0,0,0,1.14,1.1l1.286-.024a1.12,1.12,0,0,0,1.1-1.14l-.166-8.8a.9.9,0,0,1,.882-.917.915.915,0,0,1,.131.007l9.7,1.228a1.093,1.093,0,0,0,.163.009,1.124,1.124,0,0,0,1.087-.978l.161-1.276a1.12,1.12,0,0,0-.969-1.25" transform="translate(-164.527 -8.328)"/>
      <path id="パス_96" data-name="パス 96" class="cls-1" d="M336.518,31.909a1.119,1.119,0,0,0-1.11-1.257l-9.782-.271a1.392,1.392,0,0,1-1.39-1.39V23.966a.9.9,0,0,1,.822-.9l10.973-.953a1.119,1.119,0,0,0,1.018-1.212l-.111-1.281a1.125,1.125,0,0,0-1.113-1.022c-.033,0-.065,0-.1,0l-10.513.912c-.026,0-.053,0-.079,0a.9.9,0,0,1-.9-.9V13.734a1.121,1.121,0,0,0-.98-1.11l-1.287-.161a1.151,1.151,0,0,0-.141-.009,1.119,1.119,0,0,0-1.116,1.119V32.786a1.12,1.12,0,0,0,1.119,1.119l13.416.271a1.121,1.121,0,0,0,1.11-.98Z" transform="translate(-261.994 -10.174)"/>
      <path id="パス_97" data-name="パス 97" class="cls-1" d="M445.947,13.589l-1.018-.023h-.08a1.254,1.254,0,0,0-1.2,1.3l.76,19.023a1.255,1.255,0,0,0,1.3,1.2l1.016-.041a1.255,1.255,0,0,0,1.2-1.3l-.757-18.96a1.256,1.256,0,0,0-1.225-1.2" transform="translate(-362.42 -11.082)"/>
      <path id="パス_98" data-name="パス 98" class="cls-1" d="M396.4,4.877l-.82-.82-.594-.594a.983.983,0,0,0-1.39,0L393,4.057l-.82.82-.594.594a.983.983,0,0,0,0,1.39l.594.594.82.82.594.594a.983.983,0,0,0,1.39,0l.594-.594.82-.82.594-.594a.983.983,0,0,0,0-1.39Zm-1.134,1.537-.726.726a.352.352,0,0,1-.5,0l-.726-.726a.351.351,0,0,1,0-.5l.726-.726a.352.352,0,0,1,.5,0l.726.726a.351.351,0,0,1,0,.5" transform="translate(-319.659 -2.594)"/>
      <path id="パス_99" data-name="パス 99" class="cls-1" d="M604.04,10.258a1.241,1.241,0,0,0-1.192-1.242h-.053l-2.961-.026a.7.7,0,0,1-.667-.685l-.017-1.089a1.244,1.244,0,0,0-1.192-1.224h-.068L596.851,6a1.245,1.245,0,0,0-1.228,1.262l.014.973a.746.746,0,0,1-.746.756l-8.064-.006a1.171,1.171,0,0,0-1.173,1.173l0,1.181a1.168,1.168,0,0,0,1.123,1.169l8.214.008a.746.746,0,0,1,.715.735l.089,1.832a.617.617,0,0,1-.6.629l-5.041.2a1.565,1.565,0,0,0-1.493,1.492L588.5,21.6a1.565,1.565,0,0,0,1.367,1.608l4.534.553a.522.522,0,0,1,.437.666l-.743,2.782a1.1,1.1,0,0,0,.722,1.351l1.053.328a1.089,1.089,0,0,0,1.378-.757l2.169-8.325-.169-6.587a.7.7,0,0,1,.695-.707l2.861.026a1.246,1.246,0,0,0,1.242-1.246Zm-9.031,10.45-2.339-.285a.316.316,0,0,1-.277-.326l.033-.8a.331.331,0,0,1,.317-.317l2.341-.094.082.959Z" transform="translate(-478.428 -4.894)"/>
      <path id="パス_100" data-name="パス 100" class="cls-1" d="M493.224,4.88h-2.839a.983.983,0,0,0-.982.982V8.173l-10.083-.446h-.051a1.14,1.14,0,0,0-1.137,1.137l0,1.256a1.136,1.136,0,0,0,1.084,1.139l3.616.172a.62.62,0,0,1,.592.621v1.383a.473.473,0,0,1-.445.472l-3.667.217a1.258,1.258,0,0,0-1.182,1.255v1.013a1.257,1.257,0,0,0,1.255,1.257l.075,0,3.463-.2h.028a.473.473,0,0,1,.472.473v1.557a.6.6,0,0,1-.534.594l-3.768.4a1.106,1.106,0,0,0-.992,1.1V26.3a1.108,1.108,0,0,0,1.05,1.107l5.887.309.082,0a1.436,1.436,0,0,0,1.078-.418c.752-.76.733-2.4.723-3.275,0-.1,0-.183,0-.261,0-.231.183-.374.477-.374.028,0,.055,0,.078,0l2.624.162c.25.016.487.031.713.031.649,0,1.008-.14,1.193-.456l.154-.337a2.046,2.046,0,0,0,.069-1.623.666.666,0,0,0-.465-.366l-4.547-.74-.022-.013a.553.553,0,0,1-.273-.476V17.645a.473.473,0,0,1,.445-.471l3.113-.184a1.256,1.256,0,0,0,1.18-1.329l-.06-1.009a1.257,1.257,0,0,0-1.253-1.182l-.075,0-2.877.169a.473.473,0,0,1-.472-.472v-.785a.829.829,0,0,1,.828-.829h.049l2.657.154.067,0a1.138,1.138,0,0,0,1.135-1.2l-.045-.827h1.589a.982.982,0,0,0,.983-.982V5.862a.983.983,0,0,0-.983-.982m-9.8,19.993-1.456-.1a.284.284,0,0,1-.265-.283v-.826a.284.284,0,0,1,.247-.281L483.4,23.2a.284.284,0,0,1,.321.28l.005,1.113a.283.283,0,0,1-.3.284M492.669,7.8a.352.352,0,0,1-.352.352h-1.027a.351.351,0,0,1-.352-.352V6.769a.351.351,0,0,1,.352-.352h1.027a.352.352,0,0,1,.352.352Z" transform="translate(-390.587 -3.987)"/>
      <path id="パス_101" data-name="パス 101" class="cls-2" d="M0,1.707v10.28H11.987V0H1.708A1.708,1.708,0,0,0,0,1.707M6.054,9.474a.816.816,0,1,1,.816-.816.817.817,0,0,1-.816.816M2.5,3.149H9.607a.719.719,0,0,1,0,1.438H2.5a.719.719,0,0,1,0-1.438" transform="translate(0 0.001)"/>
      <path id="パス_102" data-name="パス 102" class="cls-3" d="M76.649,88.636H86.928a1.708,1.708,0,0,0,1.708-1.708V76.649H76.649Zm1.85-9.111,4.023,2.149,4.023-2.149v1.985L82.522,83.66,78.5,81.511Z" transform="translate(-62.616 -62.616)"/>
      <path id="パス_103" data-name="パス 103" class="cls-2" d="M0,86.928a1.708,1.708,0,0,0,1.708,1.708h10.28V76.649H0Zm6.054-.809A.816.816,0,1,1,6.87,85.3a.817.817,0,0,1-.816.816M2.5,79.8H9.607a.719.719,0,0,1,0,1.437H2.5a.719.719,0,0,1,0-1.437" transform="translate(0 -62.616)"/>
      <path id="パス_104" data-name="パス 104" class="cls-2" d="M86.928,0H76.649V11.986H88.636V1.707A1.708,1.708,0,0,0,86.928,0M82.582,9.474a.816.816,0,1,1,.816-.816.817.817,0,0,1-.816.816m3.553-4.887H79.029a.719.719,0,0,1,0-1.438h7.106a.719.719,0,0,1,0,1.438" transform="translate(-62.616 0.001)"/>
      <path id="パス_105" data-name="パス 105" class="cls-1" d="M216.283,19.038l-10.467-1.325a.906.906,0,0,1-.787-.876l-.1-5.407a1.121,1.121,0,0,0-1-1.092l-1.289-.136a1.148,1.148,0,0,0-.141-.006,1.119,1.119,0,0,0-1.1,1.14l.372,19.751a1.12,1.12,0,0,0,1.14,1.1l1.286-.024a1.12,1.12,0,0,0,1.1-1.14l-.166-8.8a.9.9,0,0,1,.882-.917.915.915,0,0,1,.131.007l9.7,1.228a1.093,1.093,0,0,0,.163.009,1.124,1.124,0,0,0,1.087-.978l.161-1.276a1.12,1.12,0,0,0-.969-1.25" transform="translate(-164.527 -8.328)"/>
      <path id="パス_106" data-name="パス 106" class="cls-1" d="M336.518,31.909a1.119,1.119,0,0,0-1.11-1.257l-9.782-.271a1.392,1.392,0,0,1-1.39-1.39V23.966a.9.9,0,0,1,.822-.9l10.973-.953a1.119,1.119,0,0,0,1.018-1.212l-.111-1.281a1.125,1.125,0,0,0-1.113-1.022c-.033,0-.065,0-.1,0l-10.513.912c-.026,0-.053,0-.079,0a.9.9,0,0,1-.9-.9V13.734a1.121,1.121,0,0,0-.98-1.11l-1.287-.161a1.151,1.151,0,0,0-.141-.009,1.119,1.119,0,0,0-1.116,1.119V32.786a1.12,1.12,0,0,0,1.119,1.119l13.416.271a1.121,1.121,0,0,0,1.11-.98Z" transform="translate(-261.994 -10.174)"/>
      <path id="パス_107" data-name="パス 107" class="cls-1" d="M445.947,13.589l-1.018-.023h-.08a1.254,1.254,0,0,0-1.2,1.3l.76,19.023a1.255,1.255,0,0,0,1.3,1.2l1.016-.041a1.255,1.255,0,0,0,1.2-1.3l-.757-18.96a1.256,1.256,0,0,0-1.225-1.2" transform="translate(-362.42 -11.082)"/>
      <path id="パス_108" data-name="パス 108" class="cls-1" d="M396.4,4.877l-.82-.82-.594-.594a.983.983,0,0,0-1.39,0L393,4.057l-.82.82-.594.594a.983.983,0,0,0,0,1.39l.594.594.82.82.594.594a.983.983,0,0,0,1.39,0l.594-.594.82-.82.594-.594a.983.983,0,0,0,0-1.39Zm-1.134,1.537-.726.726a.352.352,0,0,1-.5,0l-.726-.726a.351.351,0,0,1,0-.5l.726-.726a.352.352,0,0,1,.5,0l.726.726a.351.351,0,0,1,0,.5" transform="translate(-319.659 -2.594)"/>
      <path id="パス_109" data-name="パス 109" class="cls-1" d="M604.04,10.258a1.241,1.241,0,0,0-1.192-1.242h-.053l-2.961-.026a.7.7,0,0,1-.667-.685l-.017-1.089a1.244,1.244,0,0,0-1.192-1.224h-.068L596.851,6a1.245,1.245,0,0,0-1.228,1.262l.014.973a.746.746,0,0,1-.746.756l-8.064-.006a1.171,1.171,0,0,0-1.173,1.173l0,1.181a1.168,1.168,0,0,0,1.123,1.169l8.214.008a.746.746,0,0,1,.715.735l.089,1.832a.617.617,0,0,1-.6.629l-5.041.2a1.565,1.565,0,0,0-1.493,1.492L588.5,21.6a1.565,1.565,0,0,0,1.367,1.608l4.534.553a.522.522,0,0,1,.437.666l-.743,2.782a1.1,1.1,0,0,0,.722,1.351l1.053.328a1.089,1.089,0,0,0,1.378-.757l2.169-8.325-.169-6.587a.7.7,0,0,1,.695-.707l2.861.026a1.246,1.246,0,0,0,1.242-1.246Zm-9.031,10.45-2.339-.285a.316.316,0,0,1-.277-.326l.033-.8a.331.331,0,0,1,.317-.317l2.341-.094.082.959Z" transform="translate(-478.428 -4.894)"/>
      <path id="パス_110" data-name="パス 110" class="cls-1" d="M493.224,4.88h-2.839a.983.983,0,0,0-.982.982V8.173l-10.083-.446h-.051a1.14,1.14,0,0,0-1.137,1.137l0,1.256a1.136,1.136,0,0,0,1.084,1.139l3.616.172a.62.62,0,0,1,.592.621v1.383a.473.473,0,0,1-.445.472l-3.667.217a1.258,1.258,0,0,0-1.182,1.255v1.013a1.257,1.257,0,0,0,1.255,1.257l.075,0,3.463-.2h.028a.473.473,0,0,1,.472.473v1.557a.6.6,0,0,1-.534.594l-3.768.4a1.106,1.106,0,0,0-.992,1.1V26.3a1.108,1.108,0,0,0,1.05,1.107l5.887.309.082,0a1.436,1.436,0,0,0,1.078-.418c.752-.76.733-2.4.723-3.275,0-.1,0-.183,0-.261,0-.231.183-.374.477-.374.028,0,.055,0,.078,0l2.624.162c.25.016.487.031.713.031.649,0,1.008-.14,1.193-.456l.154-.337a2.046,2.046,0,0,0,.069-1.623.666.666,0,0,0-.465-.366l-4.547-.74-.022-.013a.553.553,0,0,1-.273-.476V17.645a.473.473,0,0,1,.445-.471l3.113-.184a1.256,1.256,0,0,0,1.18-1.329l-.06-1.009a1.257,1.257,0,0,0-1.253-1.182l-.075,0-2.877.169a.473.473,0,0,1-.472-.472v-.785a.829.829,0,0,1,.828-.829h.049l2.657.154.067,0a1.138,1.138,0,0,0,1.135-1.2l-.045-.827h1.589a.982.982,0,0,0,.983-.982V5.862a.983.983,0,0,0-.983-.982m-9.8,19.993-1.456-.1a.284.284,0,0,1-.265-.283v-.826a.284.284,0,0,1,.247-.281L483.4,23.2a.284.284,0,0,1,.321.28l.005,1.113a.283.283,0,0,1-.3.284M492.669,7.8a.352.352,0,0,1-.352.352h-1.027a.351.351,0,0,1-.352-.352V6.769a.351.351,0,0,1,.352-.352h1.027a.352.352,0,0,1,.352.352Z" transform="translate(-390.587 -3.987)"/>
      <path id="パス_111" data-name="パス 111" class="cls-2" d="M0,1.707v10.28H11.987V0H1.708A1.708,1.708,0,0,0,0,1.707M6.054,9.474a.816.816,0,1,1,.816-.816.817.817,0,0,1-.816.816M2.5,3.149H9.607a.719.719,0,0,1,0,1.438H2.5a.719.719,0,0,1,0-1.438" transform="translate(0 0.001)"/>
      <path id="パス_112" data-name="パス 112" class="cls-3" d="M76.649,88.636H86.928a1.708,1.708,0,0,0,1.708-1.708V76.649H76.649Zm1.85-9.111,4.023,2.149,4.023-2.149v1.985L82.522,83.66,78.5,81.511Z" transform="translate(-62.616 -62.616)"/>
      <path id="パス_113" data-name="パス 113" class="cls-2" d="M0,86.928a1.708,1.708,0,0,0,1.708,1.708h10.28V76.649H0Zm6.054-.809A.816.816,0,1,1,6.87,85.3a.817.817,0,0,1-.816.816M2.5,79.8H9.607a.719.719,0,0,1,0,1.437H2.5a.719.719,0,0,1,0-1.437" transform="translate(0 -62.616)"/>
      <path id="パス_114" data-name="パス 114" class="cls-2" d="M86.928,0H76.649V11.986H88.636V1.707A1.708,1.708,0,0,0,86.928,0M82.582,9.474a.816.816,0,1,1,.816-.816.817.817,0,0,1-.816.816m3.553-4.887H79.029a.719.719,0,0,1,0-1.438h7.106a.719.719,0,0,1,0,1.438" transform="translate(-62.616 0.001)"/>
    </g>
  </g>
</svg>
