<svg xmlns="http://www.w3.org/2000/svg" width="28" height="28" viewBox="0 0 28 28">
  <g id="グループ_6734" data-name="グループ 6734" transform="translate(-370 -765)">
    <g id="楕円形_39" data-name="楕円形 39" transform="translate(370 765)" fill="#fff" stroke="#fff" stroke-width="1">
      <circle cx="14" cy="14" r="14" stroke="none"/>
      <circle cx="14" cy="14" r="13.5" fill="none"/>
    </g>
    <g id="グループ_6735" data-name="グループ 6735" transform="translate(-102 -12)">
      <path id="pencil-alt" d="M13.319,3.8,12.086,5.037a.321.321,0,0,1-.455,0L8.662,2.068a.321.321,0,0,1,0-.455L9.9.38a1.286,1.286,0,0,1,1.816,0l1.608,1.608A1.282,1.282,0,0,1,13.319,3.8ZM7.6,2.672.579,9.7l-.567,3.25a.643.643,0,0,0,.744.744l3.25-.57L11.029,6.1a.321.321,0,0,0,0-.455L8.06,2.672a.325.325,0,0,0-.457,0ZM3.321,9.095a.373.373,0,0,1,0-.53L7.44,4.446a.374.374,0,1,1,.53.53L3.85,9.095a.373.373,0,0,1-.53,0Zm-.966,2.25H3.639v.971l-1.725.3-.832-.832.3-1.725h.971Z" transform="translate(478.999 783.995)" fill="#606060"/>
    </g>
  </g>
</svg>
