<svg xmlns="http://www.w3.org/2000/svg" viewBox="0 0 192.78 192.78"><defs><style>.cls-1{fill:#fff;}</style></defs><g id="レイヤー_2" data-name="レイヤー 2"><g id="レイヤー_1-2" data-name="レイヤー 1"><path class="cls-1" d="M101.39,15A86.39,86.39,0,1,1,15,101.39,86.49,86.49,0,0,1,101.39,15m0-10a96.39,96.39,0,1,0,96.39,96.39A96.38,96.38,0,0,0,101.39,5Z" transform="translate(-5 -5)"/><circle class="cls-1" cx="122.14" cy="58.56" r="6.52"/><path class="cls-1" d="M127.14,71.88a8.32,8.32,0,1,1,8.33-8.32A8.33,8.33,0,0,1,127.14,71.88Zm0-13a4.71,4.71,0,1,0,4.71,4.71A4.71,4.71,0,0,0,127.14,58.85Z" transform="translate(-5 -5)"/><path class="cls-1" d="M127.14,57a6.52,6.52,0,1,1-6.51,6.52A6.52,6.52,0,0,1,127.14,57m0-8.53a15,15,0,1,0,15,15.05,15.06,15.06,0,0,0-15-15.05Z" transform="translate(-5 -5)"/><path class="cls-1" d="M127.14,80.41A16.85,16.85,0,1,1,144,63.56,16.87,16.87,0,0,1,127.14,80.41Zm0-30.09a13.24,13.24,0,1,0,13.24,13.24A13.25,13.25,0,0,0,127.14,50.32Zm0,21.56a8.32,8.32,0,1,1,8.33-8.32A8.33,8.33,0,0,1,127.14,71.88Zm0-13a4.71,4.71,0,1,0,4.71,4.71A4.71,4.71,0,0,0,127.14,58.85Z" transform="translate(-5 -5)"/><circle class="cls-1" cx="122.14" cy="134.15" r="6.52"/><path class="cls-1" d="M127.14,147.47a8.33,8.33,0,1,1,8.33-8.32A8.33,8.33,0,0,1,127.14,147.47Zm0-13a4.71,4.71,0,1,0,4.71,4.71A4.71,4.71,0,0,0,127.14,134.44Z" transform="translate(-5 -5)"/><path class="cls-1" d="M127.14,132.63a6.52,6.52,0,1,1-6.51,6.52,6.52,6.52,0,0,1,6.51-6.52m0-8.53a15,15,0,1,0,15,15.05,15.06,15.06,0,0,0-15-15.05Z" transform="translate(-5 -5)"/><path class="cls-1" d="M127.14,156A16.86,16.86,0,1,1,144,139.15,16.87,16.87,0,0,1,127.14,156Zm0-30.09a13.24,13.24,0,1,0,13.24,13.24A13.25,13.25,0,0,0,127.14,125.91Zm0,21.56a8.33,8.33,0,1,1,8.33-8.32A8.33,8.33,0,0,1,127.14,147.47Zm0-13a4.71,4.71,0,1,0,4.71,4.71A4.71,4.71,0,0,0,127.14,134.44Z" transform="translate(-5 -5)"/><circle class="cls-1" cx="60.17" cy="96.35" r="6.52"/><path class="cls-1" d="M65.17,109.68a8.33,8.33,0,1,1,8.33-8.33A8.33,8.33,0,0,1,65.17,109.68Zm0-13a4.71,4.71,0,1,0,4.71,4.71A4.72,4.72,0,0,0,65.17,96.64Z" transform="translate(-5 -5)"/><path class="cls-1" d="M65.17,94.84a6.52,6.52,0,1,1-6.51,6.51,6.51,6.51,0,0,1,6.51-6.51m0-8.53a15,15,0,1,0,15,15,15.06,15.06,0,0,0-15-15Z" transform="translate(-5 -5)"/><path class="cls-1" d="M65.17,118.21A16.86,16.86,0,1,1,82,101.35,16.87,16.87,0,0,1,65.17,118.21Zm0-30.1a13.24,13.24,0,1,0,13.24,13.24A13.26,13.26,0,0,0,65.17,88.11Zm0,21.57a8.33,8.33,0,1,1,8.33-8.33A8.33,8.33,0,0,1,65.17,109.68Zm0-13a4.71,4.71,0,1,0,4.71,4.71A4.72,4.72,0,0,0,65.17,96.64Z" transform="translate(-5 -5)"/><polygon class="cls-1" points="120.15 137.91 51.07 96.35 120.15 54.8 124.14 62.32 69.28 96.35 124.14 130.38 120.15 137.91"/><path class="cls-1" d="M125.31,143.42l-70-42.07,70-42.06,4.33,8.19L75.08,101.35l54.56,33.88ZM56.87,101.35,125,142.4l3.63-6.86L73.47,101.35l55.16-34.18L125,60.3Z" transform="translate(-5 -5)"/></g></g></svg>