<svg xmlns="http://www.w3.org/2000/svg" width="28" height="28" viewBox="0 0 28 28">
  <g id="グループ_6735" data-name="グループ 6735" transform="translate(67.842 -1223.875)">
    <circle id="楕円形_40" data-name="楕円形 40" cx="14" cy="14" r="14" transform="translate(-67.842 1223.875)" fill="#fff"/>
    <g id="グループ_6746" data-name="グループ 6746" transform="translate(-65.551 1228.43)">
      <g id="グループ_6738" data-name="グループ 6738" transform="translate(3.985 0)">
        <g id="グループ_6736" data-name="グループ 6736" transform="translate(0.494 0.493)">
          <circle id="楕円形_41" data-name="楕円形 41" cx="0.377" cy="0.377" r="0.377" transform="translate(0.105 0.105)" fill="#606060"/>
          <path id="パス_5032" data-name="パス 5032" d="M-20.761,1259.6a.482.482,0,0,1-.481-.482.482.482,0,0,1,.481-.482.482.482,0,0,1,.481.482A.482.482,0,0,1-20.761,1259.6Zm0-.754a.273.273,0,0,0-.272.272.273.273,0,0,0,.272.272.273.273,0,0,0,.272-.272A.273.273,0,0,0-20.761,1258.841Z" transform="translate(21.242 -1258.632)" fill="#606060"/>
        </g>
        <g id="グループ_6737" data-name="グループ 6737">
          <path id="パス_5033" data-name="パス 5033" d="M-23.05,1256.448a.377.377,0,0,1,.377.377.377.377,0,0,1-.377.377.377.377,0,0,1-.377-.377.377.377,0,0,1,.377-.377m0-.493a.871.871,0,0,0-.87.87.871.871,0,0,0,.87.87.871.871,0,0,0,.87-.87.871.871,0,0,0-.87-.87Z" transform="translate(24.025 -1255.85)" fill="#606060"/>
          <path id="パス_5034" data-name="パス 5034" d="M-23.665,1257.185a.976.976,0,0,1-.975-.975.976.976,0,0,1,.975-.975.976.976,0,0,1,.975.975A.976.976,0,0,1-23.665,1257.185Zm0-1.741a.767.767,0,0,0-.766.766.767.767,0,0,0,.766.766.767.767,0,0,0,.766-.766A.767.767,0,0,0-23.665,1255.444Zm0,1.247a.482.482,0,0,1-.481-.482.482.482,0,0,1,.481-.482.482.482,0,0,1,.481.482A.482.482,0,0,1-23.665,1256.692Zm0-.754a.273.273,0,0,0-.272.272.273.273,0,0,0,.272.272.273.273,0,0,0,.272-.272A.273.273,0,0,0-23.665,1255.938Z" transform="translate(24.64 -1255.235)" fill="#606060"/>
        </g>
      </g>
      <g id="グループ_6741" data-name="グループ 6741" transform="translate(3.218 4.902)">
        <g id="グループ_6739" data-name="グループ 6739" transform="translate(0.329 0.329)">
          <circle id="楕円形_42" data-name="楕円形 42" cx="0.251" cy="0.251" r="0.251" transform="translate(0.07 0.07)" fill="#606060"/>
          <path id="パス_5035" data-name="パス 5035" d="M-27.333,1291.888a.321.321,0,0,1-.321-.321.321.321,0,0,1,.321-.321.321.321,0,0,1,.321.321A.321.321,0,0,1-27.333,1291.888Zm0-.5a.182.182,0,0,0-.181.182.182.182,0,0,0,.181.181.182.182,0,0,0,.182-.181A.182.182,0,0,0-27.333,1291.386Z" transform="translate(27.654 -1291.247)" fill="#606060"/>
        </g>
        <g id="グループ_6740" data-name="グループ 6740">
          <path id="パス_5036" data-name="パス 5036" d="M-28.858,1289.792a.251.251,0,0,1,.251.251.251.251,0,0,1-.251.251.251.251,0,0,1-.251-.251.251.251,0,0,1,.251-.251m0-.329a.581.581,0,0,0-.58.58.58.58,0,0,0,.58.58.58.58,0,0,0,.58-.58.581.581,0,0,0-.58-.58Z" transform="translate(29.508 -1289.393)" fill="#606060"/>
          <path id="パス_5037" data-name="パス 5037" d="M-29.268,1290.283a.65.65,0,0,1-.65-.65.65.65,0,0,1,.65-.65.65.65,0,0,1,.65.65A.65.65,0,0,1-29.268,1290.283Zm0-1.16a.511.511,0,0,0-.51.51.511.511,0,0,0,.51.51.511.511,0,0,0,.51-.51A.511.511,0,0,0-29.268,1289.123Zm0,.831a.321.321,0,0,1-.321-.321.321.321,0,0,1,.321-.321.321.321,0,0,1,.321.321A.321.321,0,0,1-29.268,1289.954Zm0-.5a.182.182,0,0,0-.181.182.182.182,0,0,0,.181.181.182.182,0,0,0,.182-.181A.182.182,0,0,0-29.268,1289.452Z" transform="translate(29.918 -1288.984)" fill="#606060"/>
        </g>
      </g>
      <g id="グループ_6744" data-name="グループ 6744" transform="translate(0 2.87)">
        <g id="グループ_6742" data-name="グループ 6742" transform="translate(0.419 0.418)">
          <circle id="楕円形_43" data-name="楕円形 43" cx="0.32" cy="0.32" r="0.32" transform="translate(0.089 0.089)" fill="#606060"/>
          <path id="パス_5038" data-name="パス 5038" d="M-48.784,1278.693a.409.409,0,0,1-.408-.408.409.409,0,0,1,.408-.408.409.409,0,0,1,.408.408A.409.409,0,0,1-48.784,1278.693Zm0-.639a.231.231,0,0,0-.231.231.231.231,0,0,0,.231.231.231.231,0,0,0,.231-.231A.231.231,0,0,0-48.784,1278.053Z" transform="translate(49.192 -1277.876)" fill="#606060"/>
        </g>
        <g id="グループ_6743" data-name="グループ 6743">
          <path id="パス_5039" data-name="パス 5039" d="M-50.725,1276.024a.32.32,0,0,1,.32.32.32.32,0,0,1-.32.32.32.32,0,0,1-.32-.32.32.32,0,0,1,.32-.32m0-.418a.739.739,0,0,0-.738.738.739.739,0,0,0,.738.738.739.739,0,0,0,.738-.738.739.739,0,0,0-.738-.738Z" transform="translate(51.552 -1275.517)" fill="#606060"/>
          <path id="パス_5040" data-name="パス 5040" d="M-51.247,1276.649a.828.828,0,0,1-.827-.827.828.828,0,0,1,.827-.827.828.828,0,0,1,.827.827A.828.828,0,0,1-51.247,1276.649Zm0-1.476a.65.65,0,0,0-.65.649.65.65,0,0,0,.65.65.65.65,0,0,0,.65-.65A.65.65,0,0,0-51.247,1275.172Zm0,1.058a.409.409,0,0,1-.408-.408.409.409,0,0,1,.408-.408.409.409,0,0,1,.408.408A.409.409,0,0,1-51.247,1276.23Zm0-.639a.231.231,0,0,0-.231.231.231.231,0,0,0,.231.231.231.231,0,0,0,.231-.231A.231.231,0,0,0-51.247,1275.591Z" transform="translate(52.074 -1274.995)" fill="#606060"/>
        </g>
      </g>
      <g id="グループ_6745" data-name="グループ 6745" transform="translate(0.341 1.094)">
        <path id="パス_5041" data-name="パス 5041" d="M-46.066,1267.558l-3.39-2.039,4.153-2.578.2.369-3.455,2.208,2.692,1.67Z" transform="translate(49.495 -1262.916)" fill="#606060"/>
        <path id="パス_5042" data-name="パス 5042" d="M-46.29,1267.436l-3.437-2.064,4.2-2.6.213.4-3.44,2.2,2.677,1.662Zm-3.358-2.064,3.343,2.014.178-.337-2.706-1.677,3.469-2.216-.178-.337Z" transform="translate(49.727 -1262.77)" fill="#606060"/>
      </g>
    </g>
    <g id="グループ_6753" data-name="グループ 6753" transform="translate(-61.036 1232.702)">
      <g id="グループ_6748" data-name="グループ 6748" transform="translate(0 0)">
        <g id="グループ_6747" data-name="グループ 6747">
          <path id="パス_67" data-name="パス 67" d="M-16.076,1286.727a2.829,2.829,0,0,0-2.829,2.829v6.3h5.658v-6.3a2.829,2.829,0,0,0-2.829-2.829Zm0-.943h7.544a3.772,3.772,0,0,1,3.772,3.772h0v6.3a.943.943,0,0,1-.943.943h-13.2a.943.943,0,0,1-.943-.943h0v-6.3A3.773,3.773,0,0,1-16.076,1285.784Zm2.5.943a3.763,3.763,0,0,1,1.277,2.829v6.3h6.6v-6.3a2.829,2.829,0,0,0-2.829-2.829H-13.58Z" transform="translate(20.013 -1285.619)" fill="#606060" fill-rule="evenodd"/>
          <path id="パス_5043" data-name="パス 5043" d="M-6.674,1295.987h-13.2a1.109,1.109,0,0,1-1.108-1.108v-6.3a3.942,3.942,0,0,1,3.938-3.938H-9.5a3.942,3.942,0,0,1,3.938,3.938v6.3A1.109,1.109,0,0,1-6.674,1295.987Zm-10.374-11.011a3.611,3.611,0,0,0-3.607,3.607v6.3a.779.779,0,0,0,.778.777h13.2a.778.778,0,0,0,.777-.777v-6.3a3.611,3.611,0,0,0-3.607-3.607Zm10.539,10.068h-6.932v-6.461a3.6,3.6,0,0,0-1.221-2.705l-.329-.289H-9.5a3,3,0,0,1,2.994,2.994Zm-6.6-.331h6.27v-6.13A2.667,2.667,0,0,0-9.5,1285.92h-4.644a3.93,3.93,0,0,1,1.037,2.664Zm-.943.331h-5.989v-6.461a3,3,0,0,1,2.994-2.995h0a3,3,0,0,1,2.994,2.995Zm-5.658-.331h5.328v-6.13a2.667,2.667,0,0,0-2.663-2.664v0a2.667,2.667,0,0,0-2.664,2.664Z" transform="translate(20.986 -1284.646)" fill="#606060"/>
        </g>
      </g>
      <g id="グループ_6750" data-name="グループ 6750" transform="translate(2.33 3.869)">
        <g id="グループ_6749" data-name="グループ 6749">
          <path id="パス_5044" data-name="パス 5044" d="M-1.258,1313.1H-3.464a.339.339,0,0,1-.339-.339.339.339,0,0,1,.339-.339h2.206a.339.339,0,0,1,.339.339A.339.339,0,0,1-1.258,1313.1Z" transform="translate(3.968 -1312.255)" fill="#606060"/>
          <path id="パス_5045" data-name="パス 5045" d="M-2.231,1312.291H-4.437a.505.505,0,0,1-.5-.5.5.5,0,0,1,.5-.5h2.206a.505.505,0,0,1,.5.5A.505.505,0,0,1-2.231,1312.291Zm-2.206-.678a.174.174,0,0,0-.174.174.174.174,0,0,0,.174.174h2.206a.174.174,0,0,0,.174-.174.174.174,0,0,0-.174-.174Z" transform="translate(4.941 -1311.282)" fill="#606060"/>
        </g>
      </g>
      <g id="グループ_6751" data-name="グループ 6751" transform="translate(3.346 6.914)">
        <path id="パス_5046" data-name="パス 5046" d="M3.618,1333.387a.426.426,0,1,0,.426.426.426.426,0,0,0-.426-.426Z" transform="translate(-3.027 -1333.222)" fill="#606060"/>
        <path id="パス_5047" data-name="パス 5047" d="M2.645,1333.431a.591.591,0,1,1,.591-.591A.592.592,0,0,1,2.645,1333.431Zm0-.852a.261.261,0,1,0,.261.26A.261.261,0,0,0,2.645,1332.58Z" transform="translate(-2.054 -1332.249)" fill="#606060"/>
      </g>
      <g id="グループ_6752" data-name="グループ 6752" transform="translate(8.986 4.784)">
        <path id="パス_68" data-name="パス 68" d="M43.941,1319.271h-1.92v-.551h3.457a.348.348,0,0,1,.348.348v.551a.348.348,0,0,1-.348.348h-.7a.349.349,0,0,1-.246-.1l-.594-.594Z" transform="translate(-41.856 -1318.555)" fill="#606060" fill-rule="evenodd"/>
        <path id="パス_5048" data-name="パス 5048" d="M43.808,1319.16a.51.51,0,0,1-.362-.15l-.546-.547H40.883v-.881h3.623a.514.514,0,0,1,.513.513v.551a.514.514,0,0,1-.513.513h-.7Zm-2.594-1.027h1.794l.06.03.612.613a.18.18,0,0,0,.129.053h.7a.183.183,0,0,0,.183-.183v-.551a.183.183,0,0,0-.183-.183H41.214Z" transform="translate(-40.883 -1317.582)" fill="#606060"/>
      </g>
    </g>
  </g>
</svg>
