<svg xmlns="http://www.w3.org/2000/svg" viewBox="0 0 192.78 192.78"><defs><style>.cls-1{fill:#fff;}.cls-2,.cls-3{fill:none;}.cls-3{stroke:#fff;stroke-width:8.38px;}</style></defs><g id="レイヤー_2" data-name="レイヤー 2"><g id="レイヤー_1-2" data-name="レイヤー 1"><path id="pencil-alt" class="cls-1" d="M141.63,75.08,133,83.71a2.25,2.25,0,0,1-3.17,0L109.07,62.94a2.25,2.25,0,0,1,0-3.18l8.63-8.62a9,9,0,0,1,12.7,0L141.63,62.4a9,9,0,0,1,0,12.67Zm-40-7.89L52.56,116.28l-4,22.72a4.49,4.49,0,0,0,3.66,5.2,4.37,4.37,0,0,0,1.53,0l22.73-4,49.11-49.11a2.25,2.25,0,0,0,0-3.18L104.86,67.19A2.26,2.26,0,0,0,101.67,67.19ZM71.72,112.07a2.62,2.62,0,0,1,0-3.69h0l28.81-28.8a2.62,2.62,0,0,1,3.7,3.7l-28.81,28.8a2.6,2.6,0,0,1-3.68,0ZM65,127.8h9v6.79l-12.06,2.1-5.82-5.81,2.11-12.06H65Z"/><g id="楕円形_44" data-name="楕円形 44"><circle class="cls-2" cx="96.39" cy="96.39" r="96.39"/><circle class="cls-3" cx="96.39" cy="96.39" r="92.2"/></g></g></g></svg>