<svg xmlns="http://www.w3.org/2000/svg" width="48.926" height="48.46" viewBox="0 0 48.926 48.46">
  <defs>
    <style>
      .cls-1 {
        fill: #606060;
      }

      .cls-2 {
        fill: #464646;
      }
    </style>
  </defs>
  <g id="グループ_21" data-name="グループ 21" transform="translate(0 0)">
    <g id="グループ_19" data-name="グループ 19" transform="translate(1.39 1.39)">
      <path id="パス_27" data-name="パス 27" class="cls-1" d="M-840.224-899.451a.676.676,0,0,0,0,.954l1.4,1.412a.659.659,0,0,1,.193.466l0,5.813a.655.655,0,0,1-.193.465l-2.956,2.963a.642.642,0,0,1-.461.195.679.679,0,0,1-.459-.182l-1.362-1.365a.275.275,0,0,1-.031-.329.178.178,0,0,0,.014-.029l1.311-6.939a.71.71,0,0,0-.007-.1l-.058-.415c-.049-.353.31.015,0,.015a.813.813,0,0,0-.517.208c-.018.016-.035.032-.053.049l-1.591,1.6a1.043,1.043,0,0,0-.318.778l0,9.807a.651.651,0,0,1-.193.464l-12.661,12.661a.615.615,0,0,1-.444.186.791.791,0,0,1-.552-.25l-7.06-7.06a.652.652,0,0,1,.064-.868l14.074-14.075a.66.66,0,0,0,.195-.5.708.708,0,0,0-.217-.466l-7.093-7.093a.66.66,0,0,0-.47-.195.663.663,0,0,0-.47.195l-9.047,9.048a.659.659,0,0,1-.585.182.684.684,0,0,1-.36-.2l-1.7-1.7a.66.66,0,0,1,0-.932l11.827-11.827a.683.683,0,0,1,.36-.195.655.655,0,0,1,.585.182l9.727,9.723a.7.7,0,0,0,.465.217.659.659,0,0,0,.5-.194l1.663-1.674a.864.864,0,0,0,.255-.618.865.865,0,0,0-.257-.617l-3.814-3.759a.865.865,0,0,1-.255-.651.9.9,0,0,1,.273-.6l1.7-1.694a.657.657,0,0,1,.466-.193.654.654,0,0,1,.466.193l4.067,4.066a.7.7,0,0,0,.443.21.659.659,0,0,0,.513-.193l1.362-2.311a1.89,1.89,0,0,0-.042-.185c-.049-.187-.085-.322-.01-.428a.212.212,0,0,1,.127-.085c.046-.03.05-.246.114-.316.193-.213.31-.332.449-.335a.214.214,0,0,1,.16.063l1.846,1.846a.789.789,0,0,1,.224.524l-.106,2.275a.694.694,0,0,1-.2.492Zm-19.451-2.181a1.015,1.015,0,0,1,.725.3l7.093,7.092a1.063,1.063,0,0,1,.322.707,1.018,1.018,0,0,1-.3.764l-14.074,14.074a.314.314,0,0,0-.065.359l7.061,7.06c.162.162.362.189.487.064l12.661-12.661a.3.3,0,0,0,.087-.21l0-9.8a1.389,1.389,0,0,1,.422-1.034l1.591-1.6a.919.919,0,0,1,.074-.069,1.169,1.169,0,0,1,.75-.3c.5,0,.287-.237.361.3l.058.415a1.158,1.158,0,0,1,.011.157l0,.026-1.314,6.954a.415.415,0,0,1-.031.1l1.3,1.307a.317.317,0,0,0,.212.082.286.286,0,0,0,.206-.088l2.956-2.963a.3.3,0,0,0,.087-.212l0-5.813a.3.3,0,0,0-.087-.212l-1.4-1.412a1.036,1.036,0,0,1,0-1.463l1.181-1.191a.7.7,0,0,0,.2-.491l.111-2.122a.433.433,0,0,0-.123-.287l-1.662-1.659c-.052.05-.12.125-.168.177a1.8,1.8,0,0,1-.28.272c.009.04.021.086.031.122.053.2.1.377-.014.491l-1.394,2.345a1.022,1.022,0,0,1-.73.306,1.018,1.018,0,0,1-.725-.3l-4.083-4.084a.307.307,0,0,0-.423,0l-1.725,1.714a.5.5,0,0,0-.148.359.5.5,0,0,0,.149.358l3.814,3.76a1.227,1.227,0,0,1,.363.872,1.228,1.228,0,0,1-.361.873l-1.663,1.673a1.017,1.017,0,0,1-.764.3,1.062,1.062,0,0,1-.707-.322l-7.969-7.969-.127-.124-1.63-1.63a.3.3,0,0,0-.268-.083.332.332,0,0,0-.168.1l-11.827,11.827a.3.3,0,0,0,0,.422l1.7,1.7a.333.333,0,0,0,.167.1.3.3,0,0,0,.268-.083l9.048-9.047A1.015,1.015,0,0,1-859.675-901.632Zm18.216-3.008-.006.006ZM-858.666-875.2h-.04a1.066,1.066,0,0,1-.708-.322l-1.9-1.9a1.018,1.018,0,0,1-.3-.764,1.064,1.064,0,0,1,.322-.707l10.444-10.444a1.013,1.013,0,0,1,.72-.3,1.047,1.047,0,0,1,.739.309,1.007,1.007,0,0,1,.29.728l.021,3.821a1.024,1.024,0,0,1-.3.714l-8.566,8.566A1.011,1.011,0,0,1-858.666-875.2Zm8.541-14.079a.655.655,0,0,0-.466.2l-10.444,10.444a.7.7,0,0,0-.217.466.662.662,0,0,0,.195.5l1.9,1.9a.7.7,0,0,0,.466.217.662.662,0,0,0,.5-.195l8.565-8.565a.659.659,0,0,0,.195-.461l-.02-3.822a.651.651,0,0,0-.187-.474A.683.683,0,0,0-850.125-889.283Z" transform="translate(886.159 917.84)"/>
      <path id="パス_28" data-name="パス 28" class="cls-1" d="M-870.98-882.835a.687.687,0,0,1-.12-.011h0a.677.677,0,0,1-.36-.195l-10.01-10.01a.7.7,0,0,0-.466-.216.659.659,0,0,0-.5.194l-2.641,2.641a.656.656,0,0,1-.585.183.685.685,0,0,1-.36-.2l-1.833-1.832a.684.684,0,0,1-.195-.36.657.657,0,0,1,.183-.585l2.641-2.641a.665.665,0,0,0,0-.94l-2.641-2.641a.66.66,0,0,1,0-.932l2.186-2.187a.657.657,0,0,1,.466-.193.655.655,0,0,1,.466.193l2.618,2.618a.713.713,0,0,0,.466.217.664.664,0,0,0,.5-.195l19.207-19.206a.676.676,0,0,1,.36-.2.656.656,0,0,1,.584.182l7.6,7.6a.657.657,0,0,1,.193.466.653.653,0,0,1-.193.465l-1.89,1.89a.671.671,0,0,1-.359.195.654.654,0,0,1-.585-.182l-4.782-4.783a.7.7,0,0,0-.466-.216.658.658,0,0,0-.5.194l-16.664,16.664a.664.664,0,0,0-.195.471.663.663,0,0,0,.195.47l7.226,7.226a.661.661,0,0,0,.47.194.66.66,0,0,0,.47-.194l8.683-8.683a.673.673,0,0,1,.36-.195.654.654,0,0,1,.585.182l1.883,1.882a.66.66,0,0,1,0,.932l-11.534,11.534A.649.649,0,0,1-870.98-882.835Zm-.057-.365a.3.3,0,0,0,.267-.083l11.534-11.533a.3.3,0,0,0,0-.423l-1.883-1.883a.3.3,0,0,0-.267-.082.322.322,0,0,0-.168.1l-8.683,8.682a1.016,1.016,0,0,1-.725.3,1.019,1.019,0,0,1-.725-.3l-7.226-7.226a1.018,1.018,0,0,1-.3-.724,1.018,1.018,0,0,1,.3-.725l16.665-16.664a1.01,1.01,0,0,1,.764-.3,1.064,1.064,0,0,1,.707.322l4.782,4.782a.3.3,0,0,0,.268.082.324.324,0,0,0,.167-.1l1.889-1.889a.3.3,0,0,0,.088-.212.3.3,0,0,0-.088-.212l-7.6-7.6a.3.3,0,0,0-.267-.083.335.335,0,0,0-.168.1l-19.206,19.207a1.019,1.019,0,0,1-.764.3,1.062,1.062,0,0,1-.707-.322L-885-902.307a.305.305,0,0,0-.423,0l-2.187,2.186a.3.3,0,0,0,0,.422l2.641,2.641a1.025,1.025,0,0,1,0,1.449l-2.641,2.641a.3.3,0,0,0-.083.268.333.333,0,0,0,.1.168l1.833,1.832a.317.317,0,0,0,.167.1.3.3,0,0,0,.268-.082l2.641-2.641a1.01,1.01,0,0,1,.764-.3,1.061,1.061,0,0,1,.707.321l10.01,10.01a.336.336,0,0,0,.168.1Z" transform="translate(888.056 919.334)"/>
    </g>
    <g id="グループ_20" data-name="グループ 20" transform="translate(0)">
      <path id="パス_29" data-name="パス 29" class="cls-2" d="M-844.336-896.538a.759.759,0,0,1,.008.11l-.005,7.141a.661.661,0,0,0,1.129.468l2.432-2.431a.679.679,0,0,0,.2-.48l0-6.934a.677.677,0,0,0-.2-.479l-.919-.92a.678.678,0,0,1,0-.958l1.036-1.039a.71.71,0,0,0,.207-.527l-.109-2.933a.647.647,0,0,0-.19-.434l-.318-.319a.678.678,0,0,0-.958,0L-844.4-903.9a.676.676,0,0,1-.958,0l-4.061-4.06a.678.678,0,0,0-.958,0l-1.743,1.742a.869.869,0,0,0,0,1.231l3.813,3.759a.869.869,0,0,1,0,1.231l-1.622,1.622a.678.678,0,0,1-.958,0l-8.235-8.235,0,0-1.49-1.49a.678.678,0,0,0-.958,0l-11.817,11.817a.678.678,0,0,0,0,.958l1.692,1.692a.678.678,0,0,0,.958,0l9.025-9.025a.678.678,0,0,1,.958,0l7.093,7.092a.678.678,0,0,1,0,.958l-14.063,14.063a.651.651,0,0,0-.064.871l7.12,7.12a.687.687,0,0,0,1,.064l12.065-12.065a.66.66,0,0,0,.194-.466l-.057-9.882a1.043,1.043,0,0,1,.316-.775l1.591-1.6.01-.009a.7.7,0,0,1,1.166.416Zm-6.853,10.621-8.555,8.555a.679.679,0,0,1-.959,0l-1.838-1.839a.676.676,0,0,1,0-.958l10.4-10.4a.661.661,0,0,1,1.129.477l.02,3.7A.661.661,0,0,1-851.189-885.917Z" transform="translate(887.734 919.418)"/>
      <path id="パス_30" data-name="パス 30" class="cls-2" d="M-860.554-897.07l-1.883-1.883a.661.661,0,0,0-.936,0l-8.695,8.695a.662.662,0,0,1-.936,0l-7.226-7.226a.661.661,0,0,1,0-.935l16.665-16.664a.66.66,0,0,1,.935,0l4.805,4.8a.661.661,0,0,0,.935,0l1.9-1.9a.661.661,0,0,0,0-.936l-7.6-7.6a.661.661,0,0,0-.935,0L-882.739-901.5a.662.662,0,0,1-.936,0l-2.641-2.641a.661.661,0,0,0-.936,0l-2.187,2.187a.661.661,0,0,0,0,.935l2.641,2.641a.661.661,0,0,1,0,.935l-2.641,2.641a.663.663,0,0,0,0,.936l1.858,1.858a.662.662,0,0,0,.936,0l2.641-2.641a.662.662,0,0,1,.936,0l10.045,10.045a.661.661,0,0,0,.935,0l11.534-11.533A.662.662,0,0,0-860.554-897.07Z" transform="translate(889.633 920.911)"/>
    </g>
  </g>
</svg>
